<svg xmlns="http://www.w3.org/2000/svg" xmlns:xlink="http://www.w3.org/1999/xlink" width="1280" zoomAndPan="magnify" viewBox="0 0 960 540.000001" height="720" preserveAspectRatio="xMidYMid meet" version="1.0"><defs><filter x="0%" y="0%" width="100%" height="100%" id="53d16a5dd1"><feColorMatrix values="0 0 0 0 1 0 0 0 0 1 0 0 0 0 1 0 0 0 1 0" color-interpolation-filters="sRGB"/></filter><clipPath id="cb2c973d05"><path d="M 0.886719 0 L 959.113281 0 L 959.113281 539 L 0.886719 539 Z M 0.886719 0 " clip-rule="nonzero"/></clipPath><mask id="5415b3d446"><g filter="url(#53d16a5dd1)"><rect x="-96" width="1152" fill="#000000" y="-54" height="648.000001" fill-opacity="0.64"/></g></mask><clipPath id="feb9559a36"><path d="M 0.886719 0 L 959 0 L 959 539 L 0.886719 539 Z M 0.886719 0 " clip-rule="nonzero"/></clipPath><clipPath id="f02ee44d27"><path d="M 75.75 0 L 884.25 0 C 925.597656 0 959.113281 33.515625 959.113281 74.863281 L 959.113281 464.140625 C 959.113281 505.484375 925.597656 539 884.25 539 L 75.75 539 C 34.402344 539 0.886719 505.484375 0.886719 464.140625 L 0.886719 74.863281 C 0.886719 33.515625 34.402344 0 75.75 0 Z M 75.75 0 " clip-rule="nonzero"/></clipPath><clipPath id="2fc20e6d8d"><rect x="0" width="960" y="0" height="539"/></clipPath></defs><g clip-path="url(#cb2c973d05)"><g mask="url(#5415b3d446)"><g transform="matrix(1, 0, 0, 1, 0.000000000000000222, 0.000000000000017795)"><g clip-path="url(#2fc20e6d8d)"><g clip-path="url(#feb9559a36)"><g clip-path="url(#f02ee44d27)"><path fill="#1f1f1f" d="M 0.886719 0 L 958.878906 0 L 958.878906 539 L 0.886719 539 Z M 0.886719 0 " fill-opacity="1" fill-rule="nonzero"/></g></g></g></g></g></g></svg>