<svg xmlns="http://www.w3.org/2000/svg" xmlns:xlink="http://www.w3.org/1999/xlink" width="129" zoomAndPan="magnify" viewBox="0 0 96.75 30.000001" height="40" preserveAspectRatio="xMidYMid meet" version="1.0"><defs><g/><clipPath id="ac1934b941"><path d="M 1.441406 0 L 95.070312 0 L 95.070312 29.03125 L 1.441406 29.03125 Z M 1.441406 0 " clip-rule="nonzero"/></clipPath><clipPath id="85eec414da"><path d="M 2.890625 0 L 93.617188 0 C 94.417969 0 95.070312 0.648438 95.070312 1.453125 L 95.070312 27.582031 C 95.070312 28.382812 94.417969 29.03125 93.617188 29.03125 L 2.890625 29.03125 C 2.089844 29.03125 1.441406 28.382812 1.441406 27.582031 L 1.441406 1.453125 C 1.441406 0.648438 2.089844 0 2.890625 0 Z M 2.890625 0 " clip-rule="nonzero"/></clipPath></defs><g clip-path="url(#ac1934b941)"><g clip-path="url(#85eec414da)"><path fill="#faad0b" d="M 1.441406 0 L 95.113281 0 L 95.113281 29.03125 L 1.441406 29.03125 Z M 1.441406 0 " fill-opacity="1" fill-rule="nonzero"/></g></g><g fill="#1f1f1f" fill-opacity="1"><g transform="translate(15.048385, 16.69355)"><g><path d="M 2.828125 -3.0625 C 2.046875 -3.289062 1.476562 -3.566406 1.125 -3.890625 C 0.769531 -4.210938 0.59375 -4.613281 0.59375 -5.09375 C 0.59375 -5.632812 0.804688 -6.082031 1.234375 -6.4375 C 1.671875 -6.789062 2.238281 -6.96875 2.9375 -6.96875 C 3.40625 -6.96875 3.820312 -6.875 4.1875 -6.6875 C 4.5625 -6.507812 4.847656 -6.257812 5.046875 -5.9375 C 5.253906 -5.613281 5.359375 -5.265625 5.359375 -4.890625 L 4.453125 -4.890625 C 4.453125 -5.304688 4.316406 -5.628906 4.046875 -5.859375 C 3.785156 -6.097656 3.414062 -6.21875 2.9375 -6.21875 C 2.488281 -6.21875 2.140625 -6.117188 1.890625 -5.921875 C 1.640625 -5.734375 1.515625 -5.460938 1.515625 -5.109375 C 1.515625 -4.828125 1.628906 -4.585938 1.859375 -4.390625 C 2.097656 -4.203125 2.503906 -4.023438 3.078125 -3.859375 C 3.648438 -3.703125 4.097656 -3.523438 4.421875 -3.328125 C 4.742188 -3.140625 4.984375 -2.914062 5.140625 -2.65625 C 5.296875 -2.394531 5.375 -2.09375 5.375 -1.75 C 5.375 -1.1875 5.15625 -0.738281 4.71875 -0.40625 C 4.289062 -0.0703125 3.710938 0.09375 2.984375 0.09375 C 2.503906 0.09375 2.0625 0.00390625 1.65625 -0.171875 C 1.25 -0.359375 0.929688 -0.609375 0.703125 -0.921875 C 0.484375 -1.234375 0.375 -1.59375 0.375 -2 L 1.296875 -2 C 1.296875 -1.582031 1.445312 -1.25 1.75 -1 C 2.050781 -0.757812 2.460938 -0.640625 2.984375 -0.640625 C 3.460938 -0.640625 3.828125 -0.738281 4.078125 -0.9375 C 4.335938 -1.132812 4.46875 -1.398438 4.46875 -1.734375 C 4.46875 -2.078125 4.347656 -2.335938 4.109375 -2.515625 C 3.867188 -2.703125 3.441406 -2.882812 2.828125 -3.0625 Z M 2.828125 -3.0625 "/></g></g></g><g fill="#1f1f1f" fill-opacity="1"><g transform="translate(20.787391, 16.69355)"><g><path d="M 0.4375 -2.609375 C 0.4375 -3.109375 0.53125 -3.554688 0.71875 -3.953125 C 0.914062 -4.347656 1.191406 -4.65625 1.546875 -4.875 C 1.898438 -5.09375 2.300781 -5.203125 2.75 -5.203125 C 3.445312 -5.203125 4.007812 -4.960938 4.4375 -4.484375 C 4.863281 -4.003906 5.078125 -3.363281 5.078125 -2.5625 L 5.078125 -2.5 C 5.078125 -2 4.984375 -1.550781 4.796875 -1.15625 C 4.609375 -0.757812 4.335938 -0.453125 3.984375 -0.234375 C 3.628906 -0.015625 3.222656 0.09375 2.765625 0.09375 C 2.066406 0.09375 1.503906 -0.144531 1.078125 -0.625 C 0.648438 -1.101562 0.4375 -1.742188 0.4375 -2.546875 Z M 1.3125 -2.5 C 1.3125 -1.925781 1.441406 -1.46875 1.703125 -1.125 C 1.960938 -0.789062 2.316406 -0.625 2.765625 -0.625 C 3.203125 -0.625 3.550781 -0.796875 3.8125 -1.140625 C 4.070312 -1.484375 4.203125 -1.972656 4.203125 -2.609375 C 4.203125 -3.160156 4.066406 -3.609375 3.796875 -3.953125 C 3.535156 -4.304688 3.1875 -4.484375 2.75 -4.484375 C 2.3125 -4.484375 1.960938 -4.3125 1.703125 -3.96875 C 1.441406 -3.625 1.3125 -3.132812 1.3125 -2.5 Z M 1.3125 -2.5 "/></g></g></g><g fill="#1f1f1f" fill-opacity="1"><g transform="translate(26.304388, 16.69355)"><g><path d="M 4.984375 -2.5 C 4.984375 -1.71875 4.800781 -1.085938 4.4375 -0.609375 C 4.082031 -0.140625 3.601562 0.09375 3 0.09375 C 2.351562 0.09375 1.851562 -0.132812 1.5 -0.59375 L 1.46875 0 L 0.65625 0 L 0.65625 -7.25 L 1.53125 -7.25 L 1.53125 -4.546875 C 1.882812 -4.984375 2.367188 -5.203125 2.984375 -5.203125 C 3.609375 -5.203125 4.097656 -4.96875 4.453125 -4.5 C 4.804688 -4.03125 4.984375 -3.390625 4.984375 -2.578125 Z M 4.109375 -2.59375 C 4.109375 -3.1875 3.992188 -3.644531 3.765625 -3.96875 C 3.535156 -4.300781 3.207031 -4.46875 2.78125 -4.46875 C 2.195312 -4.46875 1.78125 -4.195312 1.53125 -3.65625 L 1.53125 -1.453125 C 1.800781 -0.910156 2.21875 -0.640625 2.78125 -0.640625 C 3.207031 -0.640625 3.535156 -0.800781 3.765625 -1.125 C 3.992188 -1.457031 4.109375 -1.945312 4.109375 -2.59375 Z M 4.109375 -2.59375 "/></g></g></g><g fill="#1f1f1f" fill-opacity="1"><g transform="translate(31.731645, 16.69355)"><g><path d="M 3.125 -4.328125 C 3 -4.347656 2.859375 -4.359375 2.703125 -4.359375 C 2.128906 -4.359375 1.738281 -4.113281 1.53125 -3.625 L 1.53125 0 L 0.65625 0 L 0.65625 -5.109375 L 1.515625 -5.109375 L 1.53125 -4.515625 C 1.8125 -4.972656 2.21875 -5.203125 2.75 -5.203125 C 2.914062 -5.203125 3.039062 -5.179688 3.125 -5.140625 Z M 3.125 -4.328125 "/></g></g></g><g fill="#1f1f1f" fill-opacity="1"><g transform="translate(35.005006, 16.69355)"><g><path d="M 2.78125 0.09375 C 2.09375 0.09375 1.53125 -0.128906 1.09375 -0.578125 C 0.65625 -1.035156 0.4375 -1.644531 0.4375 -2.40625 L 0.4375 -2.578125 C 0.4375 -3.078125 0.53125 -3.523438 0.71875 -3.921875 C 0.914062 -4.328125 1.1875 -4.640625 1.53125 -4.859375 C 1.882812 -5.085938 2.265625 -5.203125 2.671875 -5.203125 C 3.335938 -5.203125 3.851562 -4.984375 4.21875 -4.546875 C 4.59375 -4.109375 4.78125 -3.484375 4.78125 -2.671875 L 4.78125 -2.296875 L 1.3125 -2.296875 C 1.320312 -1.796875 1.46875 -1.390625 1.75 -1.078125 C 2.03125 -0.773438 2.390625 -0.625 2.828125 -0.625 C 3.140625 -0.625 3.398438 -0.6875 3.609375 -0.8125 C 3.828125 -0.9375 4.015625 -1.101562 4.171875 -1.3125 L 4.703125 -0.890625 C 4.273438 -0.234375 3.632812 0.09375 2.78125 0.09375 Z M 2.671875 -4.484375 C 2.316406 -4.484375 2.019531 -4.351562 1.78125 -4.09375 C 1.539062 -3.84375 1.394531 -3.484375 1.34375 -3.015625 L 3.90625 -3.015625 L 3.90625 -3.09375 C 3.875 -3.53125 3.75 -3.867188 3.53125 -4.109375 C 3.320312 -4.359375 3.035156 -4.484375 2.671875 -4.484375 Z M 2.671875 -4.484375 "/></g></g></g><g fill="#1f1f1f" fill-opacity="1"><g transform="translate(40.129962, 16.69355)"><g/></g></g><g fill="#1f1f1f" fill-opacity="1"><g transform="translate(42.52476, 16.69355)"><g><path d="M 0.4375 -2.609375 C 0.4375 -3.109375 0.53125 -3.554688 0.71875 -3.953125 C 0.914062 -4.347656 1.191406 -4.65625 1.546875 -4.875 C 1.898438 -5.09375 2.300781 -5.203125 2.75 -5.203125 C 3.445312 -5.203125 4.007812 -4.960938 4.4375 -4.484375 C 4.863281 -4.003906 5.078125 -3.363281 5.078125 -2.5625 L 5.078125 -2.5 C 5.078125 -2 4.984375 -1.550781 4.796875 -1.15625 C 4.609375 -0.757812 4.335938 -0.453125 3.984375 -0.234375 C 3.628906 -0.015625 3.222656 0.09375 2.765625 0.09375 C 2.066406 0.09375 1.503906 -0.144531 1.078125 -0.625 C 0.648438 -1.101562 0.4375 -1.742188 0.4375 -2.546875 Z M 1.3125 -2.5 C 1.3125 -1.925781 1.441406 -1.46875 1.703125 -1.125 C 1.960938 -0.789062 2.316406 -0.625 2.765625 -0.625 C 3.203125 -0.625 3.550781 -0.796875 3.8125 -1.140625 C 4.070312 -1.484375 4.203125 -1.972656 4.203125 -2.609375 C 4.203125 -3.160156 4.066406 -3.609375 3.796875 -3.953125 C 3.535156 -4.304688 3.1875 -4.484375 2.75 -4.484375 C 2.3125 -4.484375 1.960938 -4.3125 1.703125 -3.96875 C 1.441406 -3.625 1.3125 -3.132812 1.3125 -2.5 Z M 1.3125 -2.5 "/></g></g></g><g fill="#1f1f1f" fill-opacity="1"><g transform="translate(48.041757, 16.69355)"><g/></g></g><g fill="#1f1f1f" fill-opacity="1"><g transform="translate(50.436555, 16.69355)"><g><path d="M 1.703125 -2.6875 L 1.703125 0 L 0.796875 0 L 0.796875 -6.875 L 3.328125 -6.875 C 4.085938 -6.875 4.679688 -6.679688 5.109375 -6.296875 C 5.535156 -5.910156 5.75 -5.40625 5.75 -4.78125 C 5.75 -4.101562 5.535156 -3.582031 5.109375 -3.21875 C 4.691406 -2.863281 4.097656 -2.6875 3.328125 -2.6875 Z M 1.703125 -3.4375 L 3.328125 -3.4375 C 3.816406 -3.4375 4.191406 -3.550781 4.453125 -3.78125 C 4.710938 -4.007812 4.84375 -4.335938 4.84375 -4.765625 C 4.84375 -5.171875 4.710938 -5.492188 4.453125 -5.734375 C 4.191406 -5.984375 3.835938 -6.113281 3.390625 -6.125 L 1.703125 -6.125 Z M 1.703125 -3.4375 "/></g></g></g><g fill="#1f1f1f" fill-opacity="1"><g transform="translate(56.539261, 16.69355)"><g><path d="M 3.125 -4.328125 C 3 -4.347656 2.859375 -4.359375 2.703125 -4.359375 C 2.128906 -4.359375 1.738281 -4.113281 1.53125 -3.625 L 1.53125 0 L 0.65625 0 L 0.65625 -5.109375 L 1.515625 -5.109375 L 1.53125 -4.515625 C 1.8125 -4.972656 2.21875 -5.203125 2.75 -5.203125 C 2.914062 -5.203125 3.039062 -5.179688 3.125 -5.140625 Z M 3.125 -4.328125 "/></g></g></g><g fill="#1f1f1f" fill-opacity="1"><g transform="translate(59.812622, 16.69355)"><g><path d="M 0.4375 -2.609375 C 0.4375 -3.109375 0.53125 -3.554688 0.71875 -3.953125 C 0.914062 -4.347656 1.191406 -4.65625 1.546875 -4.875 C 1.898438 -5.09375 2.300781 -5.203125 2.75 -5.203125 C 3.445312 -5.203125 4.007812 -4.960938 4.4375 -4.484375 C 4.863281 -4.003906 5.078125 -3.363281 5.078125 -2.5625 L 5.078125 -2.5 C 5.078125 -2 4.984375 -1.550781 4.796875 -1.15625 C 4.609375 -0.757812 4.335938 -0.453125 3.984375 -0.234375 C 3.628906 -0.015625 3.222656 0.09375 2.765625 0.09375 C 2.066406 0.09375 1.503906 -0.144531 1.078125 -0.625 C 0.648438 -1.101562 0.4375 -1.742188 0.4375 -2.546875 Z M 1.3125 -2.5 C 1.3125 -1.925781 1.441406 -1.46875 1.703125 -1.125 C 1.960938 -0.789062 2.316406 -0.625 2.765625 -0.625 C 3.203125 -0.625 3.550781 -0.796875 3.8125 -1.140625 C 4.070312 -1.484375 4.203125 -1.972656 4.203125 -2.609375 C 4.203125 -3.160156 4.066406 -3.609375 3.796875 -3.953125 C 3.535156 -4.304688 3.1875 -4.484375 2.75 -4.484375 C 2.3125 -4.484375 1.960938 -4.3125 1.703125 -3.96875 C 1.441406 -3.625 1.3125 -3.132812 1.3125 -2.5 Z M 1.3125 -2.5 "/></g></g></g><g fill="#1f1f1f" fill-opacity="1"><g transform="translate(65.329619, 16.69355)"><g><path d="M 1.5625 -5.109375 L 1.5625 0.59375 C 1.5625 1.570312 1.117188 2.0625 0.234375 2.0625 C 0.0351562 2.0625 -0.144531 2.035156 -0.3125 1.984375 L -0.3125 1.28125 C -0.207031 1.300781 -0.0703125 1.3125 0.09375 1.3125 C 0.28125 1.3125 0.425781 1.257812 0.53125 1.15625 C 0.632812 1.050781 0.6875 0.867188 0.6875 0.609375 L 0.6875 -5.109375 Z M 0.59375 -6.46875 C 0.59375 -6.601562 0.632812 -6.71875 0.71875 -6.8125 C 0.8125 -6.914062 0.941406 -6.96875 1.109375 -6.96875 C 1.273438 -6.96875 1.398438 -6.914062 1.484375 -6.8125 C 1.578125 -6.71875 1.625 -6.597656 1.625 -6.453125 C 1.625 -6.316406 1.578125 -6.203125 1.484375 -6.109375 C 1.398438 -6.015625 1.273438 -5.96875 1.109375 -5.96875 C 0.941406 -5.96875 0.8125 -6.015625 0.71875 -6.109375 C 0.632812 -6.203125 0.59375 -6.320312 0.59375 -6.46875 Z M 0.59375 -6.46875 "/></g></g></g><g fill="#1f1f1f" fill-opacity="1"><g transform="translate(67.639395, 16.69355)"><g><path d="M 2.78125 0.09375 C 2.09375 0.09375 1.53125 -0.128906 1.09375 -0.578125 C 0.65625 -1.035156 0.4375 -1.644531 0.4375 -2.40625 L 0.4375 -2.578125 C 0.4375 -3.078125 0.53125 -3.523438 0.71875 -3.921875 C 0.914062 -4.328125 1.1875 -4.640625 1.53125 -4.859375 C 1.882812 -5.085938 2.265625 -5.203125 2.671875 -5.203125 C 3.335938 -5.203125 3.851562 -4.984375 4.21875 -4.546875 C 4.59375 -4.109375 4.78125 -3.484375 4.78125 -2.671875 L 4.78125 -2.296875 L 1.3125 -2.296875 C 1.320312 -1.796875 1.46875 -1.390625 1.75 -1.078125 C 2.03125 -0.773438 2.390625 -0.625 2.828125 -0.625 C 3.140625 -0.625 3.398438 -0.6875 3.609375 -0.8125 C 3.828125 -0.9375 4.015625 -1.101562 4.171875 -1.3125 L 4.703125 -0.890625 C 4.273438 -0.234375 3.632812 0.09375 2.78125 0.09375 Z M 2.671875 -4.484375 C 2.316406 -4.484375 2.019531 -4.351562 1.78125 -4.09375 C 1.539062 -3.84375 1.394531 -3.484375 1.34375 -3.015625 L 3.90625 -3.015625 L 3.90625 -3.09375 C 3.875 -3.53125 3.75 -3.867188 3.53125 -4.109375 C 3.320312 -4.359375 3.035156 -4.484375 2.671875 -4.484375 Z M 2.671875 -4.484375 "/></g></g></g><g fill="#1f1f1f" fill-opacity="1"><g transform="translate(72.764351, 16.69355)"><g><path d="M 1.84375 -6.34375 L 1.84375 -5.109375 L 2.796875 -5.109375 L 2.796875 -4.4375 L 1.84375 -4.4375 L 1.84375 -1.265625 C 1.84375 -1.054688 1.882812 -0.898438 1.96875 -0.796875 C 2.050781 -0.703125 2.195312 -0.65625 2.40625 -0.65625 C 2.507812 -0.65625 2.648438 -0.671875 2.828125 -0.703125 L 2.828125 0 C 2.597656 0.0625 2.375 0.09375 2.15625 0.09375 C 1.757812 0.09375 1.460938 -0.0195312 1.265625 -0.25 C 1.066406 -0.488281 0.96875 -0.828125 0.96875 -1.265625 L 0.96875 -4.4375 L 0.046875 -4.4375 L 0.046875 -5.109375 L 0.96875 -5.109375 L 0.96875 -6.34375 Z M 1.84375 -6.34375 "/></g></g></g><g fill="#1f1f1f" fill-opacity="1"><g transform="translate(75.924349, 16.69355)"><g><path d="M 0.4375 -2.609375 C 0.4375 -3.109375 0.53125 -3.554688 0.71875 -3.953125 C 0.914062 -4.347656 1.191406 -4.65625 1.546875 -4.875 C 1.898438 -5.09375 2.300781 -5.203125 2.75 -5.203125 C 3.445312 -5.203125 4.007812 -4.960938 4.4375 -4.484375 C 4.863281 -4.003906 5.078125 -3.363281 5.078125 -2.5625 L 5.078125 -2.5 C 5.078125 -2 4.984375 -1.550781 4.796875 -1.15625 C 4.609375 -0.757812 4.335938 -0.453125 3.984375 -0.234375 C 3.628906 -0.015625 3.222656 0.09375 2.765625 0.09375 C 2.066406 0.09375 1.503906 -0.144531 1.078125 -0.625 C 0.648438 -1.101562 0.4375 -1.742188 0.4375 -2.546875 Z M 1.3125 -2.5 C 1.3125 -1.925781 1.441406 -1.46875 1.703125 -1.125 C 1.960938 -0.789062 2.316406 -0.625 2.765625 -0.625 C 3.203125 -0.625 3.550781 -0.796875 3.8125 -1.140625 C 4.070312 -1.484375 4.203125 -1.972656 4.203125 -2.609375 C 4.203125 -3.160156 4.066406 -3.609375 3.796875 -3.953125 C 3.535156 -4.304688 3.1875 -4.484375 2.75 -4.484375 C 2.3125 -4.484375 1.960938 -4.3125 1.703125 -3.96875 C 1.441406 -3.625 1.3125 -3.132812 1.3125 -2.5 Z M 1.3125 -2.5 "/></g></g></g></svg>